# xmcd
#
# Track frame offsets:
#	150
#	16366
#	33317
#	44297
#	54606
#	64498
#	78307
#	91988
#	107572
#	121724
#	135792
#	149974
#	165974
#	178101
#
# Disc length: 2592 seconds
#
# Revision: 0
# Processed by: cddbd v1.5.1PL0 Copyright (c) Steve Scherf et al.
# Submitted via: dBpowerAMP V4.0
#
DISCID=b60a1e0e
DTITLE=Various Artist - Voksmusik Hit-Rendezvous
DYEAR=1900
DGENRE=Volksmusik
TTITLE0=Liebe darf alles - Kastelruther Spatzen
TTITLE1=Es gibt nichts Gutes, ausser man tut es - Stefanie Hertel and Stefan Mross
TTITLE2=Hey Diandl spürst es so wie i - Marc Pircher
TTITLE3=Gehn wann man will - Alpenrebellen
TTITLE4=S' Original vom Zillertal - Ursprung Buam
TTITLE5=Beuge dich vor grauem Haar - Alpentrio Tirol
TTITLE6=Wenn Männer wüssten - Marlena Martinelli
TTITLE7=Das kann nur Liebe sein - Florian Silbereisen
TTITLE8=Hey Montanaro - Bergfeuer
TTITLE9=Ihr Name war Marilyn - Nockalm Quintett
TTITLE10=Der Wind von Mykonos - Astrid Herzbecker
TTITLE11=Hör auf dein Herz  - Oswald Sattler
TTITLE12=Ich denk so gern an Billy Vaughn - Captain Hook u. s. Singenden Saxophone
TTITLE13=Viva la vita - Klostertaler
EXTD=
EXTT0=
EXTT1=
EXTT2=
EXTT3=
EXTT4=
EXTT5=
EXTT6=
EXTT7=
EXTT8=
EXTT9=
EXTT10=
EXTT11=
EXTT12=
EXTT13=
PLAYORDER=
